<svg xmlns="http://www.w3.org/2000/svg" xmlns:xlink="http://www.w3.org/1999/xlink" width="500" zoomAndPan="magnify" viewBox="0 0 375 374.999991" height="500" preserveAspectRatio="xMidYMid meet" version="1.0"><defs><g/><clipPath id="049428ba83"><path d="M 21 139 L 87 139 L 87 274 L 21 274 Z M 21 139 " clip-rule="nonzero"/></clipPath><clipPath id="16e6f4be9d"><path d="M 152.601562 101.390625 L 173.484375 252.203125 L 21.1875 273.292969 L 0.304688 122.480469 Z M 152.601562 101.390625 " clip-rule="nonzero"/></clipPath><clipPath id="07630670d5"><path d="M 173.523438 252.46875 L 152.636719 101.660156 L 0.339844 122.746094 L 21.226562 273.558594 Z M 173.523438 252.46875 " clip-rule="nonzero"/></clipPath><clipPath id="93466e6afe"><path d="M 20 138 L 88 138 L 88 274 L 20 274 Z M 20 138 " clip-rule="nonzero"/></clipPath><clipPath id="e6705b16c9"><path d="M 152.601562 101.390625 L 173.484375 252.203125 L 21.1875 273.292969 L 0.304688 122.480469 Z M 152.601562 101.390625 " clip-rule="nonzero"/></clipPath><clipPath id="18b7fe3898"><path d="M 173.523438 252.46875 L 152.636719 101.660156 L 0.339844 122.746094 L 21.226562 273.558594 Z M 173.523438 252.46875 " clip-rule="nonzero"/></clipPath><clipPath id="2fe0fae77b"><path d="M 45 105 L 157 105 L 157 175 L 45 175 Z M 45 105 " clip-rule="nonzero"/></clipPath><clipPath id="e9908da1bc"><path d="M 152.601562 101.390625 L 173.484375 252.203125 L 21.1875 273.292969 L 0.304688 122.480469 Z M 152.601562 101.390625 " clip-rule="nonzero"/></clipPath><clipPath id="340c1a9480"><path d="M 173.523438 252.46875 L 152.636719 101.660156 L 0.339844 122.746094 L 21.226562 273.558594 Z M 173.523438 252.46875 " clip-rule="nonzero"/></clipPath><clipPath id="95c526e51a"><path d="M 238 143 L 283.824219 143 L 283.824219 190.757812 L 238 190.757812 Z M 238 143 " clip-rule="nonzero"/></clipPath><clipPath id="6e83ede67d"><path d="M 238 142 L 283.824219 142 L 283.824219 190.757812 L 238 190.757812 Z M 238 142 " clip-rule="nonzero"/></clipPath></defs><g clip-path="url(#049428ba83)"><g clip-path="url(#16e6f4be9d)"><g clip-path="url(#07630670d5)"><path fill="#0097b2" d="M 85.1875 139.414062 C 89.8125 141.625 81.085938 165.902344 69.328125 179.722656 C 61.773438 195.152344 32.105469 255.667969 21.03125 273.558594 C 28.011719 253.707031 56.492188 192.628906 63.761719 177.058594 C 67.136719 159.234375 80.566406 137.203125 85.1875 139.414062 Z M 83.480469 143.375 C 82.234375 142.78125 77.6875 149.699219 73.328125 158.816406 C 68.96875 167.933594 66.4375 175.8125 67.683594 176.410156 C 68.925781 177.003906 73.480469 170.089844 77.839844 160.972656 C 82.199219 151.855469 84.726562 143.972656 83.480469 143.375 Z M 83.480469 143.375 " fill-opacity="1" fill-rule="evenodd"/></g></g></g><g clip-path="url(#93466e6afe)"><g clip-path="url(#e6705b16c9)"><g clip-path="url(#18b7fe3898)"><path stroke-linecap="butt" transform="matrix(-0.0502776, -0.363081, -0.363081, 0.0502776, 182.741976, 279.352892)" fill="none" stroke-linejoin="miter" d="M 414.675321 211.26313 C 406.969771 199.591944 344.628546 232.259417 311.68062 269.205345 C 272.810671 295.395044 120.376078 398.215191 76.172775 434.836948 C 127.20723 408.544286 281.606295 308.72273 320.962977 283.25101 C 367.867975 267.460386 422.379409 222.923759 414.675321 211.26313 Z M 404.610122 217.358428 C 406.68097 220.503668 389.687431 235.379889 366.680582 250.57239 C 343.673733 265.76489 323.329093 275.553704 321.247689 272.409925 C 319.178302 269.275241 336.158362 254.379369 359.16521 239.186869 C 382.172059 223.994369 402.528717 214.214649 404.610122 217.358428 Z M 404.610122 217.358428 " stroke="#000000" stroke-width="0.348" stroke-opacity="1" stroke-miterlimit="4"/></g></g></g><g clip-path="url(#2fe0fae77b)"><g clip-path="url(#e9908da1bc)"><g clip-path="url(#340c1a9480)"><path fill="#0097b2" d="M 72.058594 162.039062 C 71.332031 161.683594 79.386719 165.832031 69.222656 160.628906 C 59.058594 155.421875 53.082031 150.574219 45.414062 138.4375 C 44.902344 137.628906 45.140625 136.558594 45.953125 136.046875 C 46.761719 135.535156 47.835938 135.773438 48.347656 136.582031 C 55.78125 148.347656 60.902344 152.527344 70.667969 157.484375 C 80.433594 162.441406 72.789062 158.539062 73.523438 158.890625 C 74.253906 159.246094 75.003906 159.609375 75.789062 159.980469 C 76.488281 160.3125 77.246094 160.667969 78.035156 161.03125 C 77.984375 161.132812 77.941406 161.234375 77.894531 161.335938 C 77.429688 162.300781 76.964844 163.234375 76.503906 164.144531 C 75.730469 163.789062 74.988281 163.441406 74.300781 163.117188 C 73.527344 162.75 72.785156 162.390625 72.058594 162.039062 Z M 156.75 131.730469 C 156.78125 131.960938 156.808594 132.191406 156.832031 132.414062 C 156.882812 132.929688 156.917969 133.429688 156.925781 133.914062 C 157.015625 137.796875 155.582031 140.863281 153.074219 142.546875 C 150.5625 144.226562 147.289062 144.519531 143.8125 143.894531 C 140.339844 143.265625 136.589844 141.703125 132.914062 139.34375 C 132.109375 138.828125 131.875 137.753906 132.390625 136.949219 C 132.90625 136.140625 133.980469 135.90625 134.785156 136.421875 C 138.144531 138.574219 141.53125 139.953125 144.429688 140.476562 C 147.332031 141.003906 149.671875 140.652344 151.144531 139.667969 C 152.613281 138.683594 153.53125 137.058594 153.460938 133.988281 C 153.390625 130.921875 152.167969 126.523438 149.226562 120.820312 C 143.546875 109.804688 133.457031 107.707031 125.570312 109.746094 C 121.625 110.761719 118.320312 112.882812 116.566406 115.328125 C 114.808594 117.773438 114.410156 120.339844 116.132812 123.320312 C 120.074219 130.15625 124.910156 136.140625 127.90625 142.738281 C 130.902344 149.335938 131.886719 156.703125 127.96875 165.398438 C 125.90625 169.96875 122.027344 172.601562 117.53125 173.65625 C 113.039062 174.714844 107.890625 174.355469 102.625 173.3125 C 94.304688 171.660156 85.652344 168.242188 79.066406 165.308594 C 79.605469 164.269531 80.121094 163.230469 80.613281 162.195312 C 87.082031 165.0625 95.484375 168.359375 103.304688 169.910156 C 108.285156 170.898438 113.007812 171.15625 116.742188 170.28125 C 120.476562 169.40625 123.1875 167.558594 124.804688 163.96875 C 128.351562 156.101562 127.484375 150.195312 124.75 144.175781 C 122.015625 138.152344 117.242188 132.175781 113.128906 125.050781 C 110.792969 121.003906 111.375 116.613281 113.75 113.304688 C 116.128906 109.996094 120.105469 107.570312 124.703125 106.382812 C 133.902344 104.007812 145.933594 106.855469 152.3125 119.230469 C 154.847656 124.148438 156.273438 128.269531 156.75 131.730469 Z M 156.75 131.730469 " fill-opacity="1" fill-rule="evenodd"/></g></g></g><path fill="#ffffff" d="M 91.558594 178.328125 L 346.828125 178.328125 C 356.148438 178.328125 363.703125 185.882812 363.703125 195.203125 L 363.703125 228.953125 C 363.703125 238.273438 356.148438 245.828125 346.828125 245.828125 L 91.558594 245.828125 C 82.238281 245.828125 74.683594 238.273438 74.683594 228.953125 L 74.683594 195.203125 C 74.683594 185.882812 82.238281 178.328125 91.558594 178.328125 Z M 91.558594 178.328125 " fill-opacity="1" fill-rule="nonzero"/><g fill="#545454" fill-opacity="1"><g transform="translate(74.682583, 230.077881)"><g><path d="M 4.546875 -27.578125 C 4.546875 -29.085938 4.53125 -30.398438 4.5 -31.515625 C 4.46875 -32.640625 4.414062 -33.609375 4.34375 -34.421875 C 4.269531 -35.242188 4.179688 -35.925781 4.078125 -36.46875 C 3.984375 -37.019531 3.882812 -37.484375 3.78125 -37.859375 L 3.78125 -37.96875 C 4.132812 -37.945312 4.503906 -37.9375 4.890625 -37.9375 C 5.234375 -37.914062 5.609375 -37.90625 6.015625 -37.90625 C 6.429688 -37.90625 6.863281 -37.90625 7.3125 -37.90625 C 7.945312 -37.90625 8.804688 -37.96875 9.890625 -38.09375 C 10.972656 -38.21875 12.367188 -38.28125 14.078125 -38.28125 C 15.671875 -38.28125 17.132812 -38.070312 18.46875 -37.65625 C 19.8125 -37.238281 20.972656 -36.640625 21.953125 -35.859375 C 22.929688 -35.085938 23.695312 -34.132812 24.25 -33 C 24.8125 -31.863281 25.09375 -30.570312 25.09375 -29.125 C 25.09375 -27.90625 24.925781 -26.8125 24.59375 -25.84375 C 24.257812 -24.882812 23.785156 -24.046875 23.171875 -23.328125 C 22.566406 -22.617188 21.835938 -22.019531 20.984375 -21.53125 C 20.128906 -21.050781 19.1875 -20.671875 18.15625 -20.390625 C 19.65625 -20.160156 21.023438 -19.773438 22.265625 -19.234375 C 23.503906 -18.691406 24.566406 -18.015625 25.453125 -17.203125 C 26.347656 -16.390625 27.035156 -15.441406 27.515625 -14.359375 C 28.003906 -13.273438 28.25 -12.070312 28.25 -10.75 C 28.25 -7.019531 27.019531 -4.222656 24.5625 -2.359375 C 22.113281 -0.503906 18.445312 0.421875 13.5625 0.421875 C 13.03125 0.421875 12.410156 0.398438 11.703125 0.359375 C 10.992188 0.316406 10.269531 0.265625 9.53125 0.203125 C 8.800781 0.148438 8.082031 0.101562 7.375 0.0625 C 6.675781 0.0195312 6.0625 0 5.53125 0 L 3.78125 0 L 3.78125 -0.109375 C 3.882812 -0.472656 3.984375 -0.925781 4.078125 -1.46875 C 4.179688 -2.019531 4.269531 -2.703125 4.34375 -3.515625 C 4.414062 -4.328125 4.46875 -5.289062 4.5 -6.40625 C 4.53125 -7.53125 4.546875 -8.84375 4.546875 -10.34375 Z M 14.265625 -18.765625 C 13.066406 -18.765625 12.0625 -18.71875 11.25 -18.625 C 10.4375 -18.539062 9.8125 -18.457031 9.375 -18.375 L 9.375 -10.34375 C 9.375 -8.28125 9.40625 -6.578125 9.46875 -5.234375 C 9.539062 -3.898438 9.640625 -2.804688 9.765625 -1.953125 C 10.441406 -1.867188 11.113281 -1.789062 11.78125 -1.71875 C 12.445312 -1.644531 12.984375 -1.609375 13.390625 -1.609375 C 16.691406 -1.609375 19.101562 -2.34375 20.625 -3.8125 C 22.15625 -5.289062 22.921875 -7.554688 22.921875 -10.609375 C 22.921875 -11.816406 22.738281 -12.914062 22.375 -13.90625 C 22.019531 -14.90625 21.484375 -15.765625 20.765625 -16.484375 C 20.054688 -17.210938 19.15625 -17.773438 18.0625 -18.171875 C 16.976562 -18.566406 15.710938 -18.765625 14.265625 -18.765625 Z M 9.375 -20.75 C 9.863281 -20.695312 10.300781 -20.664062 10.6875 -20.65625 C 11.082031 -20.65625 11.5 -20.65625 11.9375 -20.65625 C 13.132812 -20.65625 14.226562 -20.828125 15.21875 -21.171875 C 16.207031 -21.515625 17.050781 -22.03125 17.75 -22.71875 C 18.445312 -23.40625 18.988281 -24.265625 19.375 -25.296875 C 19.769531 -26.328125 19.96875 -27.53125 19.96875 -28.90625 C 19.96875 -30.050781 19.820312 -31.09375 19.53125 -32.03125 C 19.25 -32.96875 18.832031 -33.765625 18.28125 -34.421875 C 17.726562 -35.085938 17.046875 -35.597656 16.234375 -35.953125 C 15.421875 -36.304688 14.492188 -36.484375 13.453125 -36.484375 C 12.773438 -36.484375 12.1875 -36.457031 11.6875 -36.40625 C 11.1875 -36.351562 10.757812 -36.289062 10.40625 -36.21875 C 10 -36.144531 9.65625 -36.054688 9.375 -35.953125 Z M 9.375 -20.75 "/></g></g></g><g fill="#545454" fill-opacity="1"><g transform="translate(105.754131, 230.077881)"><g><path d="M 4.03125 -0.109375 C 4.132812 -0.472656 4.226562 -0.925781 4.3125 -1.46875 C 4.40625 -2.019531 4.484375 -2.703125 4.546875 -3.515625 C 4.617188 -4.328125 4.671875 -5.289062 4.703125 -6.40625 C 4.742188 -7.53125 4.765625 -8.84375 4.765625 -10.34375 L 4.765625 -27.578125 C 4.765625 -29.085938 4.742188 -30.398438 4.703125 -31.515625 C 4.671875 -32.640625 4.617188 -33.609375 4.546875 -34.421875 C 4.484375 -35.242188 4.40625 -35.925781 4.3125 -36.46875 C 4.226562 -37.019531 4.132812 -37.484375 4.03125 -37.859375 L 4.03125 -37.96875 L 10.34375 -37.96875 L 10.34375 -37.859375 C 10.238281 -37.484375 10.140625 -37.019531 10.046875 -36.46875 C 9.953125 -35.925781 9.875 -35.242188 9.8125 -34.421875 C 9.75 -33.609375 9.691406 -32.640625 9.640625 -31.515625 C 9.597656 -30.398438 9.578125 -29.085938 9.578125 -27.578125 L 9.578125 -10.34375 C 9.578125 -8.84375 9.597656 -7.53125 9.640625 -6.40625 C 9.691406 -5.289062 9.75 -4.328125 9.8125 -3.515625 C 9.875 -2.703125 9.953125 -2.019531 10.046875 -1.46875 C 10.140625 -0.925781 10.238281 -0.472656 10.34375 -0.109375 L 10.34375 0 L 4.03125 0 Z M 4.03125 -0.109375 "/></g></g></g><g fill="#545454" fill-opacity="1"><g transform="translate(120.781281, 230.077881)"><g><path d="M 34.5 -32.140625 L 34.25 -32.03125 C 32.875 -33.300781 31.21875 -34.316406 29.28125 -35.078125 C 27.351562 -35.835938 25.234375 -36.21875 22.921875 -36.21875 C 20.703125 -36.21875 18.664062 -35.867188 16.8125 -35.171875 C 14.957031 -34.472656 13.363281 -33.460938 12.03125 -32.140625 C 10.695312 -30.816406 9.660156 -29.191406 8.921875 -27.265625 C 8.179688 -25.335938 7.8125 -23.148438 7.8125 -20.703125 C 7.8125 -18.003906 8.160156 -15.484375 8.859375 -13.140625 C 9.566406 -10.804688 10.617188 -8.78125 12.015625 -7.0625 C 13.410156 -5.351562 15.15625 -4.007812 17.25 -3.03125 C 19.34375 -2.050781 21.78125 -1.5625 24.5625 -1.5625 C 25.570312 -1.5625 26.578125 -1.664062 27.578125 -1.875 C 28.585938 -2.09375 29.554688 -2.40625 30.484375 -2.8125 C 31.410156 -3.226562 32.285156 -3.734375 33.109375 -4.328125 C 33.929688 -4.921875 34.675781 -5.597656 35.34375 -6.359375 L 35.640625 -6.171875 L 33.515625 -0.765625 C 32.191406 -0.253906 30.726562 0.132812 29.125 0.40625 C 27.53125 0.6875 25.921875 0.828125 24.296875 0.828125 C 21.035156 0.828125 18.050781 0.351562 15.34375 -0.59375 C 12.632812 -1.539062 10.300781 -2.878906 8.34375 -4.609375 C 6.394531 -6.335938 4.878906 -8.414062 3.796875 -10.84375 C 2.710938 -13.269531 2.171875 -15.960938 2.171875 -18.921875 C 2.171875 -20.597656 2.382812 -22.25 2.8125 -23.875 C 3.25 -25.5 3.878906 -27.039062 4.703125 -28.5 C 5.535156 -29.96875 6.5625 -31.316406 7.78125 -32.546875 C 9 -33.773438 10.390625 -34.835938 11.953125 -35.734375 C 13.515625 -36.640625 15.234375 -37.34375 17.109375 -37.84375 C 18.992188 -38.34375 21.03125 -38.59375 23.21875 -38.59375 C 26.625 -38.59375 29.785156 -38.070312 32.703125 -37.03125 Z M 34.5 -32.140625 "/></g></g></g><g fill="#545454" fill-opacity="1"><g transform="translate(158.127613, 230.077881)"><g><path d="M 30.046875 -18.15625 C 29.335938 -18.175781 28.453125 -18.191406 27.390625 -18.203125 C 26.335938 -18.210938 25.1875 -18.222656 23.9375 -18.234375 C 22.695312 -18.253906 21.398438 -18.269531 20.046875 -18.28125 C 18.703125 -18.289062 17.382812 -18.296875 16.09375 -18.296875 C 14.800781 -18.304688 13.570312 -18.300781 12.40625 -18.28125 C 11.25 -18.269531 10.238281 -18.25 9.375 -18.21875 L 9.375 -10.34375 C 9.375 -8.84375 9.394531 -7.53125 9.4375 -6.40625 C 9.476562 -5.289062 9.53125 -4.328125 9.59375 -3.515625 C 9.65625 -2.703125 9.734375 -2.019531 9.828125 -1.46875 C 9.929688 -0.925781 10.035156 -0.472656 10.140625 -0.109375 L 10.140625 0 L 3.78125 0 L 3.78125 -0.109375 C 3.882812 -0.472656 3.984375 -0.925781 4.078125 -1.46875 C 4.179688 -2.019531 4.269531 -2.703125 4.34375 -3.515625 C 4.414062 -4.328125 4.46875 -5.289062 4.5 -6.40625 C 4.53125 -7.53125 4.546875 -8.84375 4.546875 -10.34375 L 4.546875 -27.578125 C 4.546875 -29.085938 4.53125 -30.398438 4.5 -31.515625 C 4.46875 -32.640625 4.414062 -33.609375 4.34375 -34.421875 C 4.269531 -35.242188 4.179688 -35.925781 4.078125 -36.46875 C 3.984375 -37.019531 3.882812 -37.484375 3.78125 -37.859375 L 3.78125 -37.96875 L 10.140625 -37.96875 L 10.140625 -37.859375 C 10.035156 -37.484375 9.929688 -37.019531 9.828125 -36.46875 C 9.734375 -35.925781 9.65625 -35.242188 9.59375 -34.421875 C 9.53125 -33.609375 9.476562 -32.640625 9.4375 -31.515625 C 9.394531 -30.398438 9.375 -29.085938 9.375 -27.578125 L 9.375 -20.8125 C 10.289062 -20.769531 11.332031 -20.742188 12.5 -20.734375 C 13.664062 -20.734375 14.882812 -20.734375 16.15625 -20.734375 C 17.425781 -20.742188 18.71875 -20.757812 20.03125 -20.78125 C 21.34375 -20.800781 22.613281 -20.820312 23.84375 -20.84375 C 25.070312 -20.875 26.21875 -20.90625 27.28125 -20.9375 C 28.351562 -20.976562 29.273438 -21.015625 30.046875 -21.046875 L 30.046875 -27.578125 C 30.046875 -29.085938 30.023438 -30.398438 29.984375 -31.515625 C 29.941406 -32.640625 29.890625 -33.609375 29.828125 -34.421875 C 29.765625 -35.242188 29.679688 -35.925781 29.578125 -36.46875 C 29.484375 -37.019531 29.382812 -37.484375 29.28125 -37.859375 L 29.28125 -37.96875 L 35.640625 -37.96875 L 35.640625 -37.859375 C 35.523438 -37.484375 35.421875 -37.019531 35.328125 -36.46875 C 35.234375 -35.925781 35.148438 -35.242188 35.078125 -34.421875 C 35.003906 -33.609375 34.945312 -32.640625 34.90625 -31.515625 C 34.875 -30.398438 34.859375 -29.085938 34.859375 -27.578125 L 34.859375 -10.34375 C 34.859375 -8.84375 34.875 -7.53125 34.90625 -6.40625 C 34.945312 -5.289062 35.003906 -4.328125 35.078125 -3.515625 C 35.148438 -2.703125 35.234375 -2.019531 35.328125 -1.46875 C 35.421875 -0.925781 35.523438 -0.472656 35.640625 -0.109375 L 35.640625 0 L 29.28125 0 L 29.28125 -0.109375 C 29.382812 -0.472656 29.484375 -0.925781 29.578125 -1.46875 C 29.679688 -2.019531 29.765625 -2.703125 29.828125 -3.515625 C 29.890625 -4.328125 29.941406 -5.289062 29.984375 -6.40625 C 30.023438 -7.53125 30.046875 -8.84375 30.046875 -10.34375 Z M 30.046875 -18.15625 "/></g></g></g><g fill="#545454" fill-opacity="1"><g transform="translate(198.200969, 230.077881)"><g><path d="M 4.03125 -0.109375 C 4.132812 -0.472656 4.226562 -0.925781 4.3125 -1.46875 C 4.40625 -2.019531 4.484375 -2.703125 4.546875 -3.515625 C 4.617188 -4.328125 4.671875 -5.289062 4.703125 -6.40625 C 4.742188 -7.53125 4.765625 -8.84375 4.765625 -10.34375 L 4.765625 -27.578125 C 4.765625 -29.085938 4.742188 -30.398438 4.703125 -31.515625 C 4.671875 -32.640625 4.617188 -33.609375 4.546875 -34.421875 C 4.484375 -35.242188 4.40625 -35.925781 4.3125 -36.46875 C 4.226562 -37.019531 4.132812 -37.484375 4.03125 -37.859375 L 4.03125 -37.96875 L 10.34375 -37.96875 L 10.34375 -37.859375 C 10.238281 -37.484375 10.140625 -37.019531 10.046875 -36.46875 C 9.953125 -35.925781 9.875 -35.242188 9.8125 -34.421875 C 9.75 -33.609375 9.691406 -32.640625 9.640625 -31.515625 C 9.597656 -30.398438 9.578125 -29.085938 9.578125 -27.578125 L 9.578125 -10.34375 C 9.578125 -8.84375 9.597656 -7.53125 9.640625 -6.40625 C 9.691406 -5.289062 9.75 -4.328125 9.8125 -3.515625 C 9.875 -2.703125 9.953125 -2.019531 10.046875 -1.46875 C 10.140625 -0.925781 10.238281 -0.472656 10.34375 -0.109375 L 10.34375 0 L 4.03125 0 Z M 4.03125 -0.109375 "/></g></g></g><g fill="#545454" fill-opacity="1"><g transform="translate(213.228114, 230.077881)"><g><path d="M 5.265625 -37.96875 L 32.53125 -8.953125 L 32.53125 -27.578125 C 32.53125 -29.085938 32.515625 -30.398438 32.484375 -31.515625 C 32.453125 -32.640625 32.398438 -33.609375 32.328125 -34.421875 C 32.253906 -35.242188 32.164062 -35.925781 32.0625 -36.46875 C 31.96875 -37.019531 31.867188 -37.484375 31.765625 -37.859375 L 31.765625 -37.96875 L 36.484375 -37.96875 L 36.484375 -37.859375 C 36.378906 -37.484375 36.28125 -37.019531 36.1875 -36.46875 C 36.101562 -35.925781 36.023438 -35.242188 35.953125 -34.421875 C 35.878906 -33.609375 35.820312 -32.640625 35.78125 -31.515625 C 35.75 -30.398438 35.734375 -29.085938 35.734375 -27.578125 L 35.734375 0.53125 L 34.8125 0.53125 L 7.546875 -28.453125 L 7.546875 -10.34375 C 7.546875 -8.84375 7.5625 -7.53125 7.59375 -6.40625 C 7.632812 -5.289062 7.6875 -4.328125 7.75 -3.515625 C 7.820312 -2.703125 7.898438 -2.019531 7.984375 -1.46875 C 8.078125 -0.925781 8.175781 -0.472656 8.28125 -0.109375 L 8.28125 0 L 3.578125 0 L 3.578125 -0.109375 C 3.679688 -0.472656 3.78125 -0.925781 3.875 -1.46875 C 3.976562 -2.019531 4.0625 -2.703125 4.125 -3.515625 C 4.195312 -4.328125 4.25 -5.289062 4.28125 -6.40625 C 4.320312 -7.53125 4.34375 -8.84375 4.34375 -10.34375 L 4.34375 -27.578125 C 4.34375 -29.085938 4.320312 -30.398438 4.28125 -31.515625 C 4.25 -32.640625 4.195312 -33.609375 4.125 -34.421875 C 4.0625 -35.242188 3.976562 -35.925781 3.875 -36.46875 C 3.78125 -37.019531 3.679688 -37.484375 3.578125 -37.859375 L 3.578125 -37.96875 Z M 5.265625 -37.96875 "/></g></g></g><g fill="#545454" fill-opacity="1"><g transform="translate(253.936897, 230.077881)"><g><path d="M 30.046875 -18.15625 C 29.335938 -18.175781 28.453125 -18.191406 27.390625 -18.203125 C 26.335938 -18.210938 25.1875 -18.222656 23.9375 -18.234375 C 22.695312 -18.253906 21.398438 -18.269531 20.046875 -18.28125 C 18.703125 -18.289062 17.382812 -18.296875 16.09375 -18.296875 C 14.800781 -18.304688 13.570312 -18.300781 12.40625 -18.28125 C 11.25 -18.269531 10.238281 -18.25 9.375 -18.21875 L 9.375 -10.34375 C 9.375 -8.84375 9.394531 -7.53125 9.4375 -6.40625 C 9.476562 -5.289062 9.53125 -4.328125 9.59375 -3.515625 C 9.65625 -2.703125 9.734375 -2.019531 9.828125 -1.46875 C 9.929688 -0.925781 10.035156 -0.472656 10.140625 -0.109375 L 10.140625 0 L 3.78125 0 L 3.78125 -0.109375 C 3.882812 -0.472656 3.984375 -0.925781 4.078125 -1.46875 C 4.179688 -2.019531 4.269531 -2.703125 4.34375 -3.515625 C 4.414062 -4.328125 4.46875 -5.289062 4.5 -6.40625 C 4.53125 -7.53125 4.546875 -8.84375 4.546875 -10.34375 L 4.546875 -27.578125 C 4.546875 -29.085938 4.53125 -30.398438 4.5 -31.515625 C 4.46875 -32.640625 4.414062 -33.609375 4.34375 -34.421875 C 4.269531 -35.242188 4.179688 -35.925781 4.078125 -36.46875 C 3.984375 -37.019531 3.882812 -37.484375 3.78125 -37.859375 L 3.78125 -37.96875 L 10.140625 -37.96875 L 10.140625 -37.859375 C 10.035156 -37.484375 9.929688 -37.019531 9.828125 -36.46875 C 9.734375 -35.925781 9.65625 -35.242188 9.59375 -34.421875 C 9.53125 -33.609375 9.476562 -32.640625 9.4375 -31.515625 C 9.394531 -30.398438 9.375 -29.085938 9.375 -27.578125 L 9.375 -20.8125 C 10.289062 -20.769531 11.332031 -20.742188 12.5 -20.734375 C 13.664062 -20.734375 14.882812 -20.734375 16.15625 -20.734375 C 17.425781 -20.742188 18.71875 -20.757812 20.03125 -20.78125 C 21.34375 -20.800781 22.613281 -20.820312 23.84375 -20.84375 C 25.070312 -20.875 26.21875 -20.90625 27.28125 -20.9375 C 28.351562 -20.976562 29.273438 -21.015625 30.046875 -21.046875 L 30.046875 -27.578125 C 30.046875 -29.085938 30.023438 -30.398438 29.984375 -31.515625 C 29.941406 -32.640625 29.890625 -33.609375 29.828125 -34.421875 C 29.765625 -35.242188 29.679688 -35.925781 29.578125 -36.46875 C 29.484375 -37.019531 29.382812 -37.484375 29.28125 -37.859375 L 29.28125 -37.96875 L 35.640625 -37.96875 L 35.640625 -37.859375 C 35.523438 -37.484375 35.421875 -37.019531 35.328125 -36.46875 C 35.234375 -35.925781 35.148438 -35.242188 35.078125 -34.421875 C 35.003906 -33.609375 34.945312 -32.640625 34.90625 -31.515625 C 34.875 -30.398438 34.859375 -29.085938 34.859375 -27.578125 L 34.859375 -10.34375 C 34.859375 -8.84375 34.875 -7.53125 34.90625 -6.40625 C 34.945312 -5.289062 35.003906 -4.328125 35.078125 -3.515625 C 35.148438 -2.703125 35.234375 -2.019531 35.328125 -1.46875 C 35.421875 -0.925781 35.523438 -0.472656 35.640625 -0.109375 L 35.640625 0 L 29.28125 0 L 29.28125 -0.109375 C 29.382812 -0.472656 29.484375 -0.925781 29.578125 -1.46875 C 29.679688 -2.019531 29.765625 -2.703125 29.828125 -3.515625 C 29.890625 -4.328125 29.941406 -5.289062 29.984375 -6.40625 C 30.023438 -7.53125 30.046875 -8.84375 30.046875 -10.34375 Z M 30.046875 -18.15625 "/></g></g></g><g fill="#545454" fill-opacity="1"><g transform="translate(294.010258, 230.077881)"><g><path d="M 21.09375 -38.59375 C 24.039062 -38.59375 26.765625 -38.113281 29.265625 -37.15625 C 31.765625 -36.195312 33.921875 -34.847656 35.734375 -33.109375 C 37.554688 -31.367188 38.976562 -29.28125 40 -26.84375 C 41.019531 -24.40625 41.53125 -21.710938 41.53125 -18.765625 C 41.53125 -17.085938 41.335938 -15.4375 40.953125 -13.8125 C 40.566406 -12.195312 40 -10.664062 39.25 -9.21875 C 38.5 -7.769531 37.578125 -6.429688 36.484375 -5.203125 C 35.390625 -3.972656 34.140625 -2.910156 32.734375 -2.015625 C 31.328125 -1.128906 29.773438 -0.4375 28.078125 0.0625 C 26.390625 0.570312 24.566406 0.828125 22.609375 0.828125 C 19.660156 0.828125 16.9375 0.351562 14.4375 -0.59375 C 11.945312 -1.539062 9.789062 -2.878906 7.96875 -4.609375 C 6.144531 -6.335938 4.722656 -8.414062 3.703125 -10.84375 C 2.679688 -13.269531 2.171875 -15.960938 2.171875 -18.921875 C 2.171875 -20.597656 2.363281 -22.25 2.75 -23.875 C 3.132812 -25.5 3.703125 -27.039062 4.453125 -28.5 C 5.210938 -29.96875 6.132812 -31.316406 7.21875 -32.546875 C 8.300781 -33.773438 9.539062 -34.835938 10.9375 -35.734375 C 12.34375 -36.640625 13.894531 -37.34375 15.59375 -37.84375 C 17.300781 -38.34375 19.132812 -38.59375 21.09375 -38.59375 Z M 22.609375 -1.5625 C 24.566406 -1.5625 26.359375 -1.914062 27.984375 -2.625 C 29.609375 -3.332031 31.003906 -4.351562 32.171875 -5.6875 C 33.347656 -7.03125 34.265625 -8.664062 34.921875 -10.59375 C 35.578125 -12.53125 35.90625 -14.726562 35.90625 -17.1875 C 35.90625 -19.90625 35.585938 -22.421875 34.953125 -24.734375 C 34.328125 -27.054688 33.394531 -29.066406 32.15625 -30.765625 C 30.925781 -32.472656 29.390625 -33.804688 27.546875 -34.765625 C 25.703125 -35.734375 23.550781 -36.21875 21.09375 -36.21875 C 19.132812 -36.21875 17.34375 -35.867188 15.71875 -35.171875 C 14.101562 -34.472656 12.707031 -33.460938 11.53125 -32.140625 C 10.351562 -30.816406 9.4375 -29.191406 8.78125 -27.265625 C 8.132812 -25.335938 7.8125 -23.148438 7.8125 -20.703125 C 7.8125 -18.003906 8.117188 -15.484375 8.734375 -13.140625 C 9.347656 -10.804688 10.273438 -8.78125 11.515625 -7.0625 C 12.753906 -5.351562 14.296875 -4.007812 16.140625 -3.03125 C 17.992188 -2.050781 20.148438 -1.5625 22.609375 -1.5625 Z M 22.609375 -1.5625 "/></g></g></g><g fill="#545454" fill-opacity="1"><g transform="translate(338.372705, 230.077881)"><g><path d="M 19.625 -31.921875 L 19.03125 -31.921875 C 18.894531 -32.328125 18.671875 -32.785156 18.359375 -33.296875 C 18.046875 -33.816406 17.640625 -34.300781 17.140625 -34.75 C 16.640625 -35.195312 16.03125 -35.570312 15.3125 -35.875 C 14.601562 -36.175781 13.757812 -36.328125 12.78125 -36.328125 C 11.914062 -36.328125 11.148438 -36.191406 10.484375 -35.921875 C 9.816406 -35.660156 9.253906 -35.289062 8.796875 -34.8125 C 8.347656 -34.332031 8.007812 -33.765625 7.78125 -33.109375 C 7.550781 -32.460938 7.4375 -31.742188 7.4375 -30.953125 C 7.4375 -29.679688 7.789062 -28.46875 8.5 -27.3125 C 9.21875 -26.15625 10.113281 -25.007812 11.1875 -23.875 C 12.269531 -22.75 13.4375 -21.617188 14.6875 -20.484375 C 15.945312 -19.359375 17.113281 -18.1875 18.1875 -16.96875 C 19.257812 -15.75 20.15625 -14.472656 20.875 -13.140625 C 21.59375 -11.804688 21.953125 -10.375 21.953125 -8.84375 C 21.953125 -7.695312 21.75 -6.546875 21.34375 -5.390625 C 20.945312 -4.234375 20.332031 -3.195312 19.5 -2.28125 C 18.675781 -1.363281 17.609375 -0.613281 16.296875 -0.03125 C 14.992188 0.539062 13.445312 0.828125 11.65625 0.828125 C 10.644531 0.828125 9.679688 0.734375 8.765625 0.546875 C 7.859375 0.359375 7.019531 0.128906 6.25 -0.140625 C 5.488281 -0.421875 4.800781 -0.71875 4.1875 -1.03125 C 3.582031 -1.351562 3.085938 -1.644531 2.703125 -1.90625 L 3.3125 -7.75 L 3.96875 -7.75 C 4.164062 -6.925781 4.484375 -6.140625 4.921875 -5.390625 C 5.367188 -4.640625 5.910156 -3.976562 6.546875 -3.40625 C 7.191406 -2.832031 7.925781 -2.375 8.75 -2.03125 C 9.582031 -1.6875 10.492188 -1.515625 11.484375 -1.515625 C 12.390625 -1.515625 13.195312 -1.648438 13.90625 -1.921875 C 14.625 -2.191406 15.238281 -2.566406 15.75 -3.046875 C 16.257812 -3.535156 16.648438 -4.113281 16.921875 -4.78125 C 17.203125 -5.457031 17.34375 -6.191406 17.34375 -6.984375 C 17.34375 -8.097656 17.140625 -9.125 16.734375 -10.0625 C 16.328125 -11.007812 15.789062 -11.90625 15.125 -12.75 C 14.46875 -13.601562 13.71875 -14.425781 12.875 -15.21875 C 12.039062 -16.007812 11.179688 -16.804688 10.296875 -17.609375 C 9.410156 -18.421875 8.546875 -19.25 7.703125 -20.09375 C 6.867188 -20.9375 6.117188 -21.835938 5.453125 -22.796875 C 4.796875 -23.765625 4.265625 -24.800781 3.859375 -25.90625 C 3.453125 -27.007812 3.25 -28.222656 3.25 -29.546875 C 3.25 -30.941406 3.519531 -32.195312 4.0625 -33.3125 C 4.601562 -34.4375 5.316406 -35.394531 6.203125 -36.1875 C 7.097656 -36.976562 8.109375 -37.585938 9.234375 -38.015625 C 10.367188 -38.441406 11.535156 -38.65625 12.734375 -38.65625 C 13.617188 -38.65625 14.429688 -38.582031 15.171875 -38.4375 C 15.910156 -38.300781 16.578125 -38.132812 17.171875 -37.9375 C 17.765625 -37.738281 18.28125 -37.539062 18.71875 -37.34375 C 19.15625 -37.15625 19.515625 -37 19.796875 -36.875 Z M 19.625 -31.921875 "/></g></g></g><g fill="#737373" fill-opacity="1"><g transform="translate(157.377779, 260.037171)"><g><path d="M 8.265625 0.25 C 6.816406 0.25 5.546875 -0.0664062 4.453125 -0.703125 C 3.367188 -1.347656 2.519531 -2.242188 1.90625 -3.390625 C 1.289062 -4.546875 0.984375 -5.875 0.984375 -7.375 C 0.984375 -8.875 1.289062 -10.195312 1.90625 -11.34375 C 2.519531 -12.488281 3.367188 -13.382812 4.453125 -14.03125 C 5.546875 -14.675781 6.816406 -15 8.265625 -15 C 9.722656 -15 10.992188 -14.675781 12.078125 -14.03125 C 13.171875 -13.382812 14.019531 -12.488281 14.625 -11.34375 C 15.226562 -10.195312 15.53125 -8.875 15.53125 -7.375 C 15.53125 -5.875 15.226562 -4.546875 14.625 -3.390625 C 14.019531 -2.242188 13.171875 -1.347656 12.078125 -0.703125 C 10.992188 -0.0664062 9.722656 0.25 8.265625 0.25 Z M 8.265625 -1.3125 C 9.347656 -1.3125 10.300781 -1.550781 11.125 -2.03125 C 11.945312 -2.519531 12.582031 -3.21875 13.03125 -4.125 C 13.488281 -5.03125 13.71875 -6.113281 13.71875 -7.375 C 13.71875 -8.644531 13.488281 -9.726562 13.03125 -10.625 C 12.582031 -11.519531 11.945312 -12.207031 11.125 -12.6875 C 10.300781 -13.175781 9.347656 -13.421875 8.265625 -13.421875 C 7.179688 -13.421875 6.226562 -13.175781 5.40625 -12.6875 C 4.582031 -12.207031 3.941406 -11.519531 3.484375 -10.625 C 3.023438 -9.726562 2.796875 -8.644531 2.796875 -7.375 C 2.796875 -6.113281 3.023438 -5.03125 3.484375 -4.125 C 3.941406 -3.21875 4.582031 -2.519531 5.40625 -2.03125 C 6.226562 -1.550781 7.179688 -1.3125 8.265625 -1.3125 Z M 8.265625 -1.3125 "/></g></g></g><g fill="#737373" fill-opacity="1"><g transform="translate(180.315916, 260.037171)"><g><path d="M 6.890625 0.25 C 5.878906 0.25 4.960938 0.0507812 4.140625 -0.34375 C 3.316406 -0.75 2.660156 -1.375 2.171875 -2.21875 C 1.679688 -3.0625 1.4375 -4.132812 1.4375 -5.4375 L 1.4375 -14.75 L 3.203125 -14.75 L 3.203125 -5.421875 C 3.203125 -3.984375 3.546875 -2.941406 4.234375 -2.296875 C 4.921875 -1.648438 5.820312 -1.328125 6.9375 -1.328125 C 8.039062 -1.328125 8.929688 -1.648438 9.609375 -2.296875 C 10.285156 -2.941406 10.625 -3.984375 10.625 -5.421875 L 10.625 -14.75 L 12.390625 -14.75 L 12.390625 -5.4375 C 12.390625 -4.132812 12.144531 -3.0625 11.65625 -2.21875 C 11.164062 -1.375 10.503906 -0.75 9.671875 -0.34375 C 8.847656 0.0507812 7.921875 0.25 6.890625 0.25 Z M 6.890625 0.25 "/></g></g></g><g fill="#737373" fill-opacity="1"><g transform="translate(200.555728, 260.037171)"><g><path d="M 6.265625 0.25 C 5.179688 0.25 4.238281 0.0546875 3.4375 -0.328125 C 2.632812 -0.722656 2.015625 -1.269531 1.578125 -1.96875 C 1.140625 -2.675781 0.921875 -3.492188 0.921875 -4.421875 L 2.78125 -4.421875 C 2.78125 -3.847656 2.910156 -3.316406 3.171875 -2.828125 C 3.441406 -2.347656 3.832031 -1.960938 4.34375 -1.671875 C 4.863281 -1.390625 5.503906 -1.25 6.265625 -1.25 C 7.253906 -1.25 8.023438 -1.484375 8.578125 -1.953125 C 9.128906 -2.429688 9.40625 -3.03125 9.40625 -3.75 C 9.40625 -4.34375 9.273438 -4.816406 9.015625 -5.171875 C 8.765625 -5.535156 8.425781 -5.828125 8 -6.046875 C 7.570312 -6.273438 7.078125 -6.472656 6.515625 -6.640625 C 5.960938 -6.804688 5.382812 -6.992188 4.78125 -7.203125 C 3.644531 -7.597656 2.800781 -8.085938 2.25 -8.671875 C 1.707031 -9.253906 1.4375 -10.015625 1.4375 -10.953125 C 1.414062 -11.742188 1.59375 -12.441406 1.96875 -13.046875 C 2.351562 -13.660156 2.894531 -14.140625 3.59375 -14.484375 C 4.289062 -14.828125 5.117188 -15 6.078125 -15 C 7.015625 -15 7.828125 -14.820312 8.515625 -14.46875 C 9.210938 -14.125 9.753906 -13.640625 10.140625 -13.015625 C 10.535156 -12.398438 10.738281 -11.703125 10.75 -10.921875 L 8.890625 -10.921875 C 8.890625 -11.328125 8.785156 -11.726562 8.578125 -12.125 C 8.367188 -12.53125 8.050781 -12.859375 7.625 -13.109375 C 7.195312 -13.359375 6.65625 -13.484375 6 -13.484375 C 5.207031 -13.503906 4.550781 -13.300781 4.03125 -12.875 C 3.519531 -12.457031 3.265625 -11.875 3.265625 -11.125 C 3.265625 -10.5 3.441406 -10.015625 3.796875 -9.671875 C 4.160156 -9.335938 4.664062 -9.0625 5.3125 -8.84375 C 5.957031 -8.625 6.703125 -8.375 7.546875 -8.09375 C 8.242188 -7.84375 8.875 -7.546875 9.4375 -7.203125 C 10 -6.867188 10.4375 -6.429688 10.75 -5.890625 C 11.070312 -5.359375 11.234375 -4.679688 11.234375 -3.859375 C 11.234375 -3.148438 11.050781 -2.484375 10.6875 -1.859375 C 10.320312 -1.234375 9.769531 -0.722656 9.03125 -0.328125 C 8.289062 0.0546875 7.367188 0.25 6.265625 0.25 Z M 6.265625 0.25 "/></g></g></g><g fill="#737373" fill-opacity="1"><g transform="translate(219.151237, 260.037171)"><g><path d="M 0.625 0 L 6.078125 -14.75 L 7.953125 -14.75 L 13.359375 0 L 11.484375 0 L 10.140625 -3.796875 L 3.859375 -3.796875 L 2.484375 0 Z M 4.390625 -5.234375 L 9.609375 -5.234375 L 7 -12.515625 Z M 4.390625 -5.234375 "/></g></g></g><g fill="#737373" fill-opacity="1"><g transform="translate(239.559691, 260.037171)"><g><path d="M 1.5625 0 L 1.5625 -14.75 L 6.09375 -14.75 C 8.6875 -14.75 10.597656 -14.085938 11.828125 -12.765625 C 13.066406 -11.453125 13.6875 -9.640625 13.6875 -7.328125 C 13.6875 -5.066406 13.066406 -3.28125 11.828125 -1.96875 C 10.597656 -0.65625 8.6875 0 6.09375 0 Z M 3.328125 -1.46875 L 6.046875 -1.46875 C 7.484375 -1.46875 8.625 -1.703125 9.46875 -2.171875 C 10.320312 -2.648438 10.929688 -3.328125 11.296875 -4.203125 C 11.660156 -5.078125 11.84375 -6.117188 11.84375 -7.328125 C 11.84375 -8.566406 11.660156 -9.628906 11.296875 -10.515625 C 10.929688 -11.398438 10.320312 -12.082031 9.46875 -12.5625 C 8.625 -13.039062 7.484375 -13.28125 6.046875 -13.28125 L 3.328125 -13.28125 Z M 3.328125 -1.46875 "/></g></g></g><g fill="#737373" fill-opacity="1"><g transform="translate(260.642727, 260.037171)"><g><path d="M 8.265625 0.25 C 6.816406 0.25 5.546875 -0.0664062 4.453125 -0.703125 C 3.367188 -1.347656 2.519531 -2.242188 1.90625 -3.390625 C 1.289062 -4.546875 0.984375 -5.875 0.984375 -7.375 C 0.984375 -8.875 1.289062 -10.195312 1.90625 -11.34375 C 2.519531 -12.488281 3.367188 -13.382812 4.453125 -14.03125 C 5.546875 -14.675781 6.816406 -15 8.265625 -15 C 9.722656 -15 10.992188 -14.675781 12.078125 -14.03125 C 13.171875 -13.382812 14.019531 -12.488281 14.625 -11.34375 C 15.226562 -10.195312 15.53125 -8.875 15.53125 -7.375 C 15.53125 -5.875 15.226562 -4.546875 14.625 -3.390625 C 14.019531 -2.242188 13.171875 -1.347656 12.078125 -0.703125 C 10.992188 -0.0664062 9.722656 0.25 8.265625 0.25 Z M 8.265625 -1.3125 C 9.347656 -1.3125 10.300781 -1.550781 11.125 -2.03125 C 11.945312 -2.519531 12.582031 -3.21875 13.03125 -4.125 C 13.488281 -5.03125 13.71875 -6.113281 13.71875 -7.375 C 13.71875 -8.644531 13.488281 -9.726562 13.03125 -10.625 C 12.582031 -11.519531 11.945312 -12.207031 11.125 -12.6875 C 10.300781 -13.175781 9.347656 -13.421875 8.265625 -13.421875 C 7.179688 -13.421875 6.226562 -13.175781 5.40625 -12.6875 C 4.582031 -12.207031 3.941406 -11.519531 3.484375 -10.625 C 3.023438 -9.726562 2.796875 -8.644531 2.796875 -7.375 C 2.796875 -6.113281 3.023438 -5.03125 3.484375 -4.125 C 3.941406 -3.21875 4.582031 -2.519531 5.40625 -2.03125 C 6.226562 -1.550781 7.179688 -1.3125 8.265625 -1.3125 Z M 8.265625 -1.3125 "/></g></g></g><g fill="#737373" fill-opacity="1"><g transform="translate(283.580864, 260.037171)"><g><path d="M 6.265625 0.25 C 5.179688 0.25 4.238281 0.0546875 3.4375 -0.328125 C 2.632812 -0.722656 2.015625 -1.269531 1.578125 -1.96875 C 1.140625 -2.675781 0.921875 -3.492188 0.921875 -4.421875 L 2.78125 -4.421875 C 2.78125 -3.847656 2.910156 -3.316406 3.171875 -2.828125 C 3.441406 -2.347656 3.832031 -1.960938 4.34375 -1.671875 C 4.863281 -1.390625 5.503906 -1.25 6.265625 -1.25 C 7.253906 -1.25 8.023438 -1.484375 8.578125 -1.953125 C 9.128906 -2.429688 9.40625 -3.03125 9.40625 -3.75 C 9.40625 -4.34375 9.273438 -4.816406 9.015625 -5.171875 C 8.765625 -5.535156 8.425781 -5.828125 8 -6.046875 C 7.570312 -6.273438 7.078125 -6.472656 6.515625 -6.640625 C 5.960938 -6.804688 5.382812 -6.992188 4.78125 -7.203125 C 3.644531 -7.597656 2.800781 -8.085938 2.25 -8.671875 C 1.707031 -9.253906 1.4375 -10.015625 1.4375 -10.953125 C 1.414062 -11.742188 1.59375 -12.441406 1.96875 -13.046875 C 2.351562 -13.660156 2.894531 -14.140625 3.59375 -14.484375 C 4.289062 -14.828125 5.117188 -15 6.078125 -15 C 7.015625 -15 7.828125 -14.820312 8.515625 -14.46875 C 9.210938 -14.125 9.753906 -13.640625 10.140625 -13.015625 C 10.535156 -12.398438 10.738281 -11.703125 10.75 -10.921875 L 8.890625 -10.921875 C 8.890625 -11.328125 8.785156 -11.726562 8.578125 -12.125 C 8.367188 -12.53125 8.050781 -12.859375 7.625 -13.109375 C 7.195312 -13.359375 6.65625 -13.484375 6 -13.484375 C 5.207031 -13.503906 4.550781 -13.300781 4.03125 -12.875 C 3.519531 -12.457031 3.265625 -11.875 3.265625 -11.125 C 3.265625 -10.5 3.441406 -10.015625 3.796875 -9.671875 C 4.160156 -9.335938 4.664062 -9.0625 5.3125 -8.84375 C 5.957031 -8.625 6.703125 -8.375 7.546875 -8.09375 C 8.242188 -7.84375 8.875 -7.546875 9.4375 -7.203125 C 10 -6.867188 10.4375 -6.429688 10.75 -5.890625 C 11.070312 -5.359375 11.234375 -4.679688 11.234375 -3.859375 C 11.234375 -3.148438 11.050781 -2.484375 10.6875 -1.859375 C 10.320312 -1.234375 9.769531 -0.722656 9.03125 -0.328125 C 8.289062 0.0546875 7.367188 0.25 6.265625 0.25 Z M 6.265625 0.25 "/></g></g></g><path stroke-linecap="butt" transform="matrix(0.75, 0, 0, 0.75, 162.429061, 171.465985)" fill="none" stroke-linejoin="miter" d="M 0.000835288 0.498479 L 264.141478 0.498479 " stroke="#0097b2" stroke-width="1" stroke-opacity="1" stroke-miterlimit="4"/><path fill="#fdfdfd" d="M 247.601562 130.878906 C 247.601562 130.878906 248.070312 128.65625 249.324219 126.96875 C 251.011719 124.742188 253.882812 123.019531 256.824219 124.886719 C 260.558594 127.289062 259.445312 131.058594 257.652344 133.535156 C 256.464844 135.148438 254.78125 136.082031 254.78125 136.082031 Z M 247.601562 130.878906 " fill-opacity="1" fill-rule="nonzero"/><path fill="#0097b2" d="M 254.78125 136.515625 C 254.851562 136.515625 254.921875 136.515625 254.996094 136.476562 C 255.066406 136.441406 256.789062 135.472656 258.011719 133.785156 C 259.375 131.882812 259.984375 129.804688 259.660156 128.117188 C 259.375 126.679688 258.511719 125.496094 257.078125 124.5625 C 253.882812 122.519531 250.761719 124.457031 249.039062 126.753906 C 247.710938 128.511719 247.242188 130.734375 247.242188 130.84375 C 247.207031 131.058594 247.351562 131.273438 247.566406 131.347656 C 247.78125 131.382812 247.996094 131.238281 248.070312 131.023438 C 248.070312 130.988281 248.535156 128.871094 249.71875 127.253906 C 251.300781 125.171875 253.953125 123.523438 256.644531 125.28125 C 257.902344 126.070312 258.65625 127.113281 258.871094 128.296875 C 259.160156 129.804688 258.621094 131.632812 257.363281 133.355469 C 256.25 134.898438 254.636719 135.796875 254.601562 135.796875 C 254.386719 135.902344 254.3125 136.15625 254.421875 136.371094 C 254.492188 136.441406 254.636719 136.515625 254.78125 136.515625 Z M 254.78125 136.515625 " fill-opacity="1" fill-rule="nonzero"/><path fill="#fdfdfd" d="M 254.457031 128.332031 C 254.457031 128.332031 252.554688 129.445312 251.835938 131.667969 Z M 254.457031 128.332031 " fill-opacity="1" fill-rule="nonzero"/><path fill="#0097b2" d="M 251.835938 132.0625 C 252.015625 132.0625 252.160156 131.957031 252.230469 131.777344 C 252.878906 129.730469 254.636719 128.65625 254.636719 128.65625 C 254.851562 128.546875 254.886719 128.296875 254.78125 128.082031 C 254.671875 127.902344 254.421875 127.828125 254.207031 127.9375 C 254.132812 127.972656 252.160156 129.15625 251.40625 131.527344 C 251.335938 131.742188 251.441406 131.957031 251.695312 132.027344 C 251.765625 132.0625 251.800781 132.0625 251.835938 132.0625 Z M 251.835938 132.0625 " fill-opacity="1" fill-rule="nonzero"/><g clip-path="url(#95c526e51a)"><path fill="#fdfdfd" d="M 283.382812 172.6875 C 283.382812 172.6875 280.832031 159.445312 275.59375 154.960938 C 270.355469 150.507812 244.371094 143.367188 244.371094 143.367188 L 254.566406 166.945312 C 254.566406 166.945312 243.441406 171.824219 241.503906 176.742188 C 239.242188 182.375 238.488281 183.453125 238.488281 186.324219 C 238.488281 186.324219 239.347656 190.128906 242.003906 190.128906 C 244.660156 190.128906 247.566406 189.949219 250.042969 187.4375 C 251.082031 186.359375 252.304688 183.8125 252.304688 183.8125 L 259.589844 181.730469 C 259.589844 181.730469 266.441406 180.4375 269.457031 175.558594 C 270.246094 174.300781 270.5 172.722656 270.5 172.722656 Z M 283.382812 172.6875 " fill-opacity="1" fill-rule="nonzero"/></g><g clip-path="url(#6e83ede67d)"><path fill="#0097b2" d="M 241.96875 190.523438 C 239.027344 190.523438 238.09375 186.574219 238.058594 186.394531 C 238.058594 183.957031 238.523438 182.769531 239.851562 179.613281 C 240.210938 178.753906 240.605469 177.78125 241.105469 176.5625 C 242.9375 172.003906 252.015625 167.628906 254.027344 166.730469 L 243.976562 143.546875 C 243.90625 143.402344 243.941406 143.222656 244.050781 143.117188 C 244.15625 143.007812 244.300781 142.972656 244.480469 142.972656 C 245.558594 143.261719 270.640625 150.1875 275.882812 154.636719 C 281.15625 159.121094 283.703125 172.042969 283.777344 172.578125 C 283.8125 172.6875 283.777344 172.832031 283.703125 172.902344 C 283.632812 173.011719 283.523438 173.046875 283.382812 173.046875 L 270.785156 173.046875 C 270.679688 173.585938 270.355469 174.734375 269.746094 175.703125 C 266.660156 180.691406 259.910156 182.019531 259.625 182.054688 L 252.554688 184.0625 C 252.269531 184.671875 251.226562 186.683594 250.292969 187.652344 C 247.78125 190.308594 244.804688 190.523438 241.96875 190.523438 Z M 238.882812 186.324219 C 238.882812 186.324219 239.707031 189.734375 241.96875 189.734375 C 244.730469 189.734375 247.421875 189.519531 249.683594 187.148438 C 250.652344 186.144531 251.875 183.632812 251.875 183.632812 C 251.910156 183.523438 252.015625 183.453125 252.125 183.417969 L 259.410156 181.335938 C 259.515625 181.300781 266.15625 180.007812 269.027344 175.34375 C 269.746094 174.160156 269.996094 172.652344 269.996094 172.652344 C 270.03125 172.4375 270.210938 172.292969 270.390625 172.292969 L 282.808594 172.292969 C 282.304688 169.886719 279.757812 159.121094 275.269531 155.316406 C 270.679688 151.40625 249.503906 145.304688 245.019531 144.050781 L 254.886719 166.835938 C 254.960938 167.054688 254.886719 167.304688 254.671875 167.375 C 254.566406 167.410156 243.691406 172.257812 241.824219 176.921875 C 241.359375 178.105469 240.929688 179.109375 240.570312 179.972656 C 239.3125 183.058594 238.882812 184.136719 238.882812 186.324219 Z M 238.882812 186.324219 " fill-opacity="1" fill-rule="nonzero"/></g><path fill="#fdfdfd" d="M 234.503906 173.800781 L 227.828125 168.667969 L 221.691406 150.761719 C 221.691406 150.761719 216.09375 157.257812 214.445312 165.042969 C 212.757812 172.832031 215.339844 176.707031 218.679688 177.710938 C 221.980469 178.714844 225.136719 178.429688 225.136719 178.429688 C 225.136719 178.429688 228.367188 182.878906 232.171875 181.40625 C 235.402344 180.152344 236.515625 176.492188 234.503906 173.800781 Z M 234.503906 173.800781 " fill-opacity="1" fill-rule="nonzero"/><path fill="#0097b2" d="M 230.558594 182.125 C 227.757812 182.125 225.53125 179.578125 224.957031 178.859375 C 224.167969 178.894531 221.441406 179.003906 218.535156 178.105469 C 216.917969 177.605469 211.824219 175.199219 214.011719 164.9375 C 215.664062 157.183594 221.296875 150.582031 221.371094 150.507812 C 221.476562 150.402344 221.621094 150.328125 221.765625 150.367188 C 221.90625 150.402344 222.015625 150.507812 222.085938 150.652344 L 228.1875 168.417969 L 234.753906 173.476562 C 234.792969 173.511719 234.828125 173.511719 234.828125 173.546875 C 235.832031 174.914062 236.15625 176.597656 235.6875 178.179688 C 235.222656 179.828125 233.964844 181.121094 232.277344 181.800781 C 231.703125 182.019531 231.132812 182.125 230.558594 182.125 Z M 225.136719 178 C 225.28125 178 225.390625 178.070312 225.460938 178.179688 C 225.496094 178.214844 228.546875 182.339844 231.992188 181.011719 C 233.425781 180.4375 234.503906 179.328125 234.898438 177.925781 C 235.257812 176.636719 235.007812 175.234375 234.179688 174.085938 L 227.578125 168.992188 C 227.507812 168.957031 227.46875 168.882812 227.433594 168.8125 L 221.511719 151.585938 C 220.148438 153.308594 216.128906 158.835938 214.800781 165.113281 C 213.4375 171.574219 214.910156 176.132812 218.785156 177.316406 C 221.980469 178.285156 225.066406 178 225.101562 178 C 225.101562 178 225.136719 178 225.136719 178 Z M 225.136719 178 " fill-opacity="1" fill-rule="nonzero"/><path fill="#fdfdfd" d="M 226 131.667969 C 222.699219 133.820312 218.390625 140.496094 217.277344 147.960938 C 216.273438 154.707031 217.027344 158.226562 219.179688 162.066406 C 221.765625 166.695312 228.332031 170.066406 236.117188 170.066406 C 243.90625 170.066406 246.597656 170.28125 252.449219 168.847656 C 258.296875 167.410156 266.550781 161.453125 261.417969 149.933594 C 261.417969 149.933594 260.558594 137.304688 253.417969 131.703125 C 249.972656 129.40625 247.710938 127.613281 241.070312 127.363281 C 234.433594 127.074219 228.617188 129.945312 226 131.667969 Z M 226 131.667969 " fill-opacity="1" fill-rule="nonzero"/><path fill="#0097b2" d="M 240.640625 170.460938 C 240.03125 170.460938 239.386719 170.460938 238.667969 170.460938 L 236.117188 170.460938 C 228.511719 170.460938 221.550781 167.160156 218.820312 162.246094 C 216.8125 158.621094 215.84375 155.101562 216.882812 147.890625 C 217.960938 140.460938 222.265625 133.644531 225.785156 131.308594 C 229.230469 129.011719 235.078125 126.644531 241.070312 126.894531 C 247.421875 127.148438 249.863281 128.796875 252.984375 130.878906 L 253.632812 131.308594 C 260.664062 136.835938 261.707031 148.644531 261.8125 149.792969 C 263.824219 154.3125 263.96875 158.367188 262.28125 161.847656 C 260.234375 166.011719 255.929688 168.382812 252.554688 169.207031 C 247.960938 170.355469 245.304688 170.460938 240.640625 170.460938 Z M 226 131.667969 L 226.214844 132.027344 C 222.839844 134.253906 218.714844 140.855469 217.671875 148.035156 C 216.632812 155.066406 217.53125 158.296875 219.503906 161.886719 C 222.125 166.550781 228.761719 169.671875 236.082031 169.671875 L 238.632812 169.671875 C 244.480469 169.671875 247.207031 169.707031 252.304688 168.453125 C 255.496094 167.664062 259.589844 165.4375 261.492188 161.527344 C 263.070312 158.261719 262.925781 154.421875 260.988281 150.113281 C 260.953125 150.078125 260.953125 150.007812 260.953125 149.972656 C 260.953125 149.863281 260.019531 137.445312 253.128906 132.027344 L 252.519531 131.632812 C 249.398438 129.550781 247.136719 128.042969 241.035156 127.792969 C 233.570312 127.398438 227.398438 131.238281 226.25 131.992188 Z M 226 131.667969 " fill-opacity="1" fill-rule="nonzero"/><path fill="#fdfdfd" d="M 234.503906 162.601562 C 234.503906 162.601562 236.691406 163.609375 237.734375 161.238281 Z M 234.503906 162.601562 " fill-opacity="1" fill-rule="nonzero"/><path fill="#0097b2" d="M 235.582031 163.214844 C 234.898438 163.214844 234.398438 162.960938 234.359375 162.960938 C 234.144531 162.855469 234.074219 162.640625 234.144531 162.421875 C 234.253906 162.207031 234.46875 162.101562 234.683594 162.207031 C 234.683594 162.207031 235.472656 162.566406 236.226562 162.28125 C 236.691406 162.101562 237.089844 161.707031 237.375 161.058594 C 237.445312 160.84375 237.699219 160.738281 237.914062 160.84375 C 238.128906 160.953125 238.199219 161.167969 238.128906 161.382812 C 237.769531 162.207031 237.230469 162.746094 236.515625 163.035156 C 236.191406 163.175781 235.867188 163.214844 235.582031 163.214844 Z M 235.582031 163.214844 " fill-opacity="1" fill-rule="nonzero"/><path fill="#fdfdfd" d="M 240.101562 166.660156 C 240.101562 166.660156 237.589844 166.441406 236.515625 162.601562 Z M 240.101562 166.660156 " fill-opacity="1" fill-rule="nonzero"/><path fill="#0097b2" d="M 240.101562 167.089844 C 240.066406 167.089844 240.066406 167.089844 240.101562 167.089844 C 239.957031 167.089844 237.265625 166.800781 236.117188 162.746094 C 236.046875 162.53125 236.191406 162.316406 236.40625 162.246094 C 236.65625 162.207031 236.835938 162.316406 236.910156 162.53125 C 237.878906 166.011719 240.03125 166.261719 240.136719 166.300781 C 240.355469 166.335938 240.53125 166.515625 240.496094 166.730469 C 240.496094 166.910156 240.316406 167.089844 240.101562 167.089844 Z M 240.101562 167.089844 " fill-opacity="1" fill-rule="nonzero"/><path fill="#0097b2" d="M 240.425781 150.761719 C 240.425781 151.023438 240.375 151.273438 240.273438 151.515625 C 240.175781 151.757812 240.03125 151.972656 239.847656 152.15625 C 239.664062 152.339844 239.449219 152.484375 239.207031 152.585938 C 238.964844 152.683594 238.714844 152.734375 238.453125 152.734375 C 238.191406 152.734375 237.9375 152.683594 237.695312 152.585938 C 237.453125 152.484375 237.242188 152.339844 237.054688 152.15625 C 236.871094 151.972656 236.726562 151.757812 236.628906 151.515625 C 236.527344 151.273438 236.476562 151.023438 236.476562 150.761719 C 236.476562 150.5 236.527344 150.246094 236.628906 150.003906 C 236.726562 149.761719 236.871094 149.550781 237.054688 149.363281 C 237.242188 149.179688 237.453125 149.039062 237.695312 148.9375 C 237.9375 148.835938 238.191406 148.785156 238.453125 148.785156 C 238.714844 148.785156 238.964844 148.835938 239.207031 148.9375 C 239.449219 149.039062 239.664062 149.179688 239.847656 149.363281 C 240.03125 149.550781 240.175781 149.761719 240.273438 150.003906 C 240.375 150.246094 240.425781 150.5 240.425781 150.761719 Z M 240.425781 150.761719 " fill-opacity="1" fill-rule="nonzero"/><path fill="#0097b2" d="M 260.558594 150.761719 C 260.558594 151.023438 260.507812 151.273438 260.40625 151.515625 C 260.308594 151.757812 260.164062 151.972656 259.980469 152.15625 C 259.792969 152.339844 259.582031 152.484375 259.339844 152.585938 C 259.097656 152.683594 258.847656 152.734375 258.585938 152.734375 C 258.324219 152.734375 258.070312 152.683594 257.828125 152.585938 C 257.585938 152.484375 257.375 152.339844 257.1875 152.15625 C 257.003906 151.972656 256.859375 151.757812 256.761719 151.515625 C 256.660156 151.273438 256.609375 151.023438 256.609375 150.761719 C 256.609375 150.5 256.660156 150.246094 256.761719 150.003906 C 256.859375 149.761719 257.003906 149.550781 257.1875 149.363281 C 257.375 149.179688 257.585938 149.039062 257.828125 148.9375 C 258.070312 148.835938 258.324219 148.785156 258.585938 148.785156 C 258.847656 148.785156 259.097656 148.835938 259.339844 148.9375 C 259.582031 149.039062 259.792969 149.179688 259.980469 149.363281 C 260.164062 149.550781 260.308594 149.761719 260.40625 150.003906 C 260.507812 150.246094 260.558594 150.5 260.558594 150.761719 Z M 260.558594 150.761719 " fill-opacity="1" fill-rule="nonzero"/><path fill="#fdfdfd" d="M 230.914062 130.878906 C 230.914062 130.878906 230.449219 128.65625 229.191406 126.96875 C 227.507812 124.707031 224.597656 123.019531 221.691406 124.886719 C 217.960938 127.289062 219.074219 131.058594 220.867188 133.535156 C 222.050781 135.148438 223.738281 136.082031 223.738281 136.082031 Z M 230.914062 130.878906 " fill-opacity="1" fill-rule="nonzero"/><path fill="#0097b2" d="M 223.738281 136.515625 C 223.667969 136.515625 223.59375 136.515625 223.523438 136.476562 C 223.453125 136.441406 221.730469 135.472656 220.507812 133.785156 C 219.144531 131.882812 218.535156 129.804688 218.859375 128.117188 C 219.144531 126.679688 220.007812 125.496094 221.441406 124.5625 C 224.636719 122.519531 227.757812 124.457031 229.480469 126.753906 C 230.808594 128.511719 231.273438 130.734375 231.273438 130.84375 C 231.308594 131.058594 231.167969 131.273438 230.953125 131.347656 C 230.734375 131.382812 230.519531 131.238281 230.449219 131.023438 C 230.449219 130.988281 229.984375 128.871094 228.796875 127.253906 C 227.253906 125.101562 224.597656 123.488281 221.90625 125.210938 C 220.652344 126 219.898438 127.039062 219.683594 128.222656 C 219.394531 129.730469 219.933594 131.5625 221.191406 133.285156 C 222.304688 134.828125 223.917969 135.722656 223.953125 135.722656 C 224.167969 135.832031 224.242188 136.082031 224.132812 136.296875 C 224.023438 136.441406 223.882812 136.515625 223.738281 136.515625 Z M 223.738281 136.515625 " fill-opacity="1" fill-rule="nonzero"/><path fill="#fdfdfd" d="M 224.0625 128.332031 C 224.0625 128.332031 225.964844 129.445312 226.679688 131.667969 Z M 224.0625 128.332031 " fill-opacity="1" fill-rule="nonzero"/><path fill="#0097b2" d="M 226.644531 132.0625 C 226.464844 132.0625 226.320312 131.957031 226.25 131.777344 C 225.605469 129.730469 223.847656 128.65625 223.847656 128.65625 C 223.628906 128.546875 223.59375 128.296875 223.703125 128.082031 C 223.808594 127.902344 224.0625 127.828125 224.277344 127.9375 C 224.347656 127.972656 226.320312 129.15625 227.074219 131.527344 C 227.148438 131.742188 227.039062 131.957031 226.789062 132.027344 C 226.753906 132.0625 226.71875 132.0625 226.644531 132.0625 Z M 226.644531 132.0625 " fill-opacity="1" fill-rule="nonzero"/><path fill="#0097b2" d="M 259.554688 153.882812 C 259.554688 155.460938 257.722656 157.292969 255.460938 157.292969 C 253.199219 157.292969 251.371094 155.460938 251.371094 153.882812 C 251.371094 152.304688 253.199219 151.550781 255.460938 151.550781 C 257.722656 151.585938 259.554688 152.304688 259.554688 153.882812 Z M 259.554688 153.882812 " fill-opacity="1" fill-rule="nonzero"/><path fill="#0097b2" d="M 256.25 165.761719 C 256.035156 165.761719 255.855469 165.582031 255.855469 165.367188 L 255.855469 157.21875 C 255.855469 157.003906 256.035156 156.824219 256.25 156.824219 C 256.464844 156.824219 256.644531 157.003906 256.644531 157.21875 L 256.644531 165.332031 C 256.683594 165.582031 256.464844 165.761719 256.25 165.761719 Z M 256.25 165.761719 " fill-opacity="1" fill-rule="nonzero"/><path fill="#fdfdfd" d="M 270.679688 172.328125 C 271.144531 171.539062 271.359375 169.171875 271.539062 168.273438 Z M 270.679688 172.328125 " fill-opacity="1" fill-rule="nonzero"/><path fill="#0097b2" d="M 270.679688 172.722656 C 270.605469 172.722656 270.535156 172.6875 270.460938 172.652344 C 270.28125 172.542969 270.210938 172.292969 270.320312 172.078125 C 270.640625 171.539062 270.855469 170.066406 270.964844 169.0625 C 271 168.703125 271.074219 168.382812 271.109375 168.164062 C 271.144531 167.949219 271.359375 167.808594 271.574219 167.84375 C 271.789062 167.878906 271.933594 168.09375 271.898438 168.308594 C 271.863281 168.523438 271.824219 168.847656 271.753906 169.171875 C 271.574219 170.355469 271.394531 171.824219 271 172.472656 C 270.964844 172.652344 270.820312 172.722656 270.679688 172.722656 Z M 270.679688 172.722656 " fill-opacity="1" fill-rule="nonzero"/><path stroke-linecap="butt" transform="matrix(0.75, -0.000000000000000372, 0.000000000000000372, 0.75, 66.313579, 253.12554)" fill="none" stroke-linejoin="miter" d="M -0.00143913 0.49928 L 108.660026 0.49928 " stroke="#0097b2" stroke-width="1" stroke-opacity="1" stroke-miterlimit="4"/><path stroke-linecap="butt" transform="matrix(0.75, 0, 0, 0.75, 304.710952, 252.689779)" fill="none" stroke-linejoin="miter" d="M -0.0000189209 0.502169 L 74.432278 0.502169 " stroke="#0097b2" stroke-width="1" stroke-opacity="1" stroke-miterlimit="4"/></svg>